<svg xmlns="http://www.w3.org/2000/svg" viewBox="0 0 1024 1024"><defs><style>.cls-1{fill:none;}.cls-2{fill:#fff;}</style></defs><g id="Слой_2" data-name="Слой 2"><g id="Logo_Transparent"><g id="Frame"><rect class="cls-1" width="1024" height="1024"/></g><path class="cls-2" d="M512,121.66a388.63,388.63,0,0,0-178.72,43.23c-33.17,19-35.49,23.32-52.61,42.33-24.56,27.28-8.09,67.36,4.66,80.11,44.92,44.92,126.59-20.58,160.5-36.33s95.25-19.58,128.25-16.92S647.42,250.75,679,268.33s71.67,67.75,79.75,88c-10.67-7-44.08-12.41-76.83-7.66s-49.67,18.41-81.25,42.83-39.5,47.75-53,74.58c-7.61,15.13-13.91,26.51-22,31.92-6.27,4.19-14.52,4.25-19.5,3.08-11.42-2.66-19.34-35.83-21-46.5s-2.42-72.91-7.17-95.91-10.83-40.78-15.44-42.78S412,339.33,396.75,350.67s-33.33,30.66-33.33,30.66-7.79-4.07-29.84-7.5-59.75-1.08-59.75-1.08-24.41-30.92-37.58-43.92-42.58-31.58-44.67-31.5-7.11,2.24-14.84,14.65a388.45,388.45,0,0,0-55.08,200c0,215.58,174.76,390.34,390.34,390.34S902.34,727.58,902.34,512,727.58,121.66,512,121.66ZM190.83,521.15C176.1,513.39,171,492,179.39,473.36v0c.32,4.17,1.7,7.74,4.53,9.67,7.66,5.22,17,3.67,22.74-4.75s5.72-20.53-1.94-25.75l-1.26-.85a24.86,24.86,0,0,1,17.82,2c14.73,7.75,19.85,29.15,11.44,47.78S205.56,528.91,190.83,521.15Zm87.09,32.1c-1.09,1.17-9.09,7.62-15.42,14.08S251.08,581.21,249.83,584c-.49-2.47-5.73-14.12-10.44-22.82-3.32-6.13-6.44-10.9-6.89-12.55-1.08-4,1.08-8,4.33-8s11.45,1.12,21.06,2.85,19,4.77,20.61,6.11S279,552.08,277.92,553.25Zm50.7,255.54c-3.44,5-12.71,3.82-19.58-.91s-10.28-13.5-6.83-18.5,13.05-4,19.91.75S332.07,803.79,328.62,808.79Zm-8.14-278.52c-13.67-27.47-6.88-58.63,15.17-69.6,10.82-5.39,23.31-4.9,34.84.25-10.91,4.29-18.76,15-18.76,30.64,0,20.64,14.57,31.1,30.94,31.1,10.76,0,19-5.61,23.44-15.31,4.53,22.37-3.35,44-21,52.8C363.09,571.12,334.14,557.74,320.48,530.27Zm18.27,232.4c3.45-5,13.05-4,19.92.75s9.94,13.66,6.5,18.66-12.72,3.82-19.59-.91S335.3,767.67,338.75,762.67Zm66.06,94.8c-9.78,6.08-30.32.39-43.77-11.56s-17.48-28.16-7.7-34.24,29.87-.78,43.32,11.16S414.59,851.39,404.81,857.47Zm48.86-418.3c-2.42,1.16-5-5.84-24.84-18.17s-26.91-9-27.66-11.33,17.5-15.5,24.33-21,26.75-21.92,28.06-21.06,2.52,14.89,2.86,33.56S456.08,438,453.67,439.17Z"/></g></g></svg>